<?xml version="1.0" encoding="utf-8"?>
<!-- Generator: Adobe Illustrator 21.0.0, SVG Export Plug-In . SVG Version: 6.00 Build 0)  -->
<svg version="1.1" id="Livello_1" xmlns="http://www.w3.org/2000/svg" xmlns:xlink="http://www.w3.org/1999/xlink" x="0px" y="0px"
	 viewBox="0 0 841.9 595.3" style="enable-background:new 0 0 841.9 595.3;" xml:space="preserve">
<style type="text/css">
	.st0{fill:url(#SVGID_1_);}
</style>
<g>
	<linearGradient id="SVGID_1_" gradientUnits="userSpaceOnUse" x1="150.9437" y1="297.64" x2="690.9463" y2="297.64">
		<stop  offset="0" style="stop-color:#2A2F70"/>
		<stop  offset="0.3157" style="stop-color:#444A9A"/>
		<stop  offset="0.6832" style="stop-color:#45A4DC"/>
		<stop  offset="1" style="stop-color:#52BFCF"/>
	</linearGradient>
	<path class="st0" d="M664.1,168.8l-8.3-6.5c-12.3-9.6-27.1-14.7-42.8-14.7c-21.7,0-41.8,9.8-55,26.8l-29.2,37.5
		c-2,2.6-2.9,5.8-2.5,9.1c0.4,3.3,2.1,6.2,4.7,8.2c2.2,1.7,4.8,2.6,7.6,2.6c3.8,0,7.4-1.7,9.7-4.8l29.2-37.5
		c8.6-11,21.5-17.3,35.5-17.3c10.1,0,19.7,3.3,27.6,9.5l8.3,6.5c9.5,7.4,15.5,18,17,30c1.5,11.9-1.8,23.7-9.2,33.2l-42.2,54.2
		c-10,12.9-23.8,15.6-33.6,15.6c-1.2,0-2.3,0-3.4-0.1c-14.3-0.9-26.7-8.6-40.3-25.2c-0.9-1.1-1.8-2.2-2.7-3.4l-92-118.1
		c-13.3-17-33.3-26.8-55-26.8c-15.6,0-30.4,5.1-42.7,14.7l-8.3,6.5c-13.5,10.5-22,25-25.3,40.6l-27.2-35c-13.3-17-33.3-26.8-55-26.8
		c-15.6,0-30.4,5.1-42.8,14.7l-8.3,6.5c-30.3,23.6-35.8,67.5-12.1,97.8l120.1,154.2c11.4,14.7,27.9,24,46.4,26.3
		c2.9,0.4,5.8,0.5,8.7,0.5c15.6,0,30.3-5.1,42.7-14.7l8.3-6.5c13.1-10.2,21.9-24.5,25.3-40.6l27.3,35c13.3,17,33.3,26.8,55,26.8
		c15.6,0,30.4-5.1,42.7-14.7c6.1-4.7,10.5-8.8,14.3-13.1c4.4-5,9.7-11.8,11.6-19.8c0.8-3.2,0.2-6.5-1.5-9.3
		c-1.7-2.8-4.4-4.8-7.7-5.5c-0.9-0.2-1.9-0.3-2.9-0.3c-5.7,0-10.7,3.9-12,9.5c-0.5,2-2.5,5.1-6.1,9.2c-2.7,3.1-6.1,6.2-10.9,9.9
		c-8,6.2-17.5,9.5-27.6,9.5c-14,0-27-6.3-35.5-17.3l-58.8-75.4c-0.4-0.5-0.7-1.1-1.1-1.6l-61.4-78.7c-13.9-19.5-10.2-46.8,8.9-61.6
		l8.3-6.5c8-6.2,17.5-9.5,27.6-9.5c14,0,27,6.3,35.5,17.3l92,118.1c1,1.3,2,2.6,3.1,3.8c17.8,21.7,36.7,32.9,57.9,34.2
		c1.6,0.1,3.3,0.1,4.9,0.1c21.6,0,40.4-8.9,53-25.1l42.2-54.2C699.9,236.3,694.4,192.4,664.1,168.8z M384.3,415v3.3v1.7l0-1.7h0
		l0-1.7l0-3.2h0V415z M376.7,407l-8.3,6.5c-8,6.2-17.5,9.5-27.6,9.5c-1.9,0-3.8-0.1-5.6-0.3c-11.9-1.5-22.6-7.5-30-17L185.1,251.4
		c-15.3-19.6-11.7-47.9,7.8-63.2l8.3-6.5c8-6.2,17.5-9.5,27.6-9.5c14,0,27,6.3,35.5,17.3l58.8,75.5c0.4,0.5,0.7,1,1.1,1.5l61.4,78.7
		C399.6,364.8,395.8,392.1,376.7,407z"/>
</g>
</svg>
